<svg id="Group_110" data-name="Group 110" xmlns="http://www.w3.org/2000/svg" width="65.572" height="65.572" viewBox="0 0 65.572 65.572">
  <rect id="Rectangle_33" data-name="Rectangle 33" width="65.572" height="65.572" rx="12" fill="#f36084"/>
  <g id="_2_User" data-name="2 User" transform="translate(11.658 16.029)">
    <g id="Group_103" data-name="Group 103" transform="translate(0)">
      <path id="_2_Friends" data-name="2 Friends" d="M0,26.738c0-4.385,6.068-5.483,13.172-5.483,7.143,0,13.173,1.134,13.173,5.525s-6.068,5.484-13.173,5.484C6.029,32.264,0,31.128,0,26.738Zm4.456-18.2A8.6,8.6,0,0,1,13.172,0a8.6,8.6,0,0,1,8.717,8.536,8.6,8.6,0,0,1-8.717,8.536A8.6,8.6,0,0,1,4.456,8.536Z" fill="#fff"/>
      <path id="Vector" d="M0,5.387C.127,4.794.229,4.2.382,3.622A3.945,3.945,0,0,1,2.418,1.113,7.937,7.937,0,0,1,5.867,0C7.1-.034,7.433.23,7.674,1.39c.305,1.45.585,2.9.9,4.35a1.093,1.093,0,0,1-.509,1.3A19.494,19.494,0,0,1,5.8,8.11c-.42.164-.585.391-.484.794A11.784,11.784,0,0,0,5.8,10.518a30.415,30.415,0,0,0,3.818,6.026c.229.3.395.227.662.025.675-.5,1.375-.946,2.074-1.412a.882.882,0,0,1,1.273.214c1.095,1.16,2.2,2.307,3.347,3.417a1.623,1.623,0,0,1,.407,1.778,3.074,3.074,0,0,1-1.909,1.967c-.789.328-1.629.517-2.444.782H11.645a8.228,8.228,0,0,1-3.793-1.74A20.508,20.508,0,0,1,.891,11.426C.5,10.026.293,8.576,0,7.152Z" transform="translate(26.228 4.372)" fill="#fff"/>
    </g>
  </g>
</svg>
