<svg id="Group_106" data-name="Group 106" xmlns="http://www.w3.org/2000/svg" width="65.572" height="65.572" viewBox="0 0 65.572 65.572">
  <rect id="Rectangle_33" data-name="Rectangle 33" width="65.572" height="65.572" rx="12" fill="#d8c477"/>
  <g id="Group_105" data-name="Group 105" transform="translate(13.114 16.029)">
    <path id="Fill_1" data-name="Fill 1" d="M13.173,0C6.068,0,0,1.1,0,5.484S6.03,11.01,13.173,11.01c7.1,0,13.173-1.1,13.173-5.484S20.317,0,13.173,0Z" transform="translate(0 21.254)" fill="#fdfdfd"/>
    <path id="Fill_3" data-name="Fill 3" d="M8.717,17.073a8.6,8.6,0,0,0,8.717-8.536A8.6,8.6,0,0,0,8.717,0,8.6,8.6,0,0,0,0,8.536,8.6,8.6,0,0,0,8.717,17.073Z" transform="translate(4.457)" fill="#fdfdfd"/>
    <path id="Vector" d="M7.3,0h6.26c.795,0,1.108.334.987,1.12-.217,1.692-.457,3.408-.674,5.1-.337,2.55-.674,5.124-1.011,7.674-.241,1.907-.506,3.813-.746,5.72a.874.874,0,0,1-.963.786H3.472a.872.872,0,0,1-1.011-.858C2.22,17.826,2,16.087,1.786,14.371,1.4,11.535,1.04,8.7.655,5.863.438,4.218.221,2.55,0,.906A.8.8,0,0,1,.847,0H7.3ZM1.136,1.144C1.931,7.2,2.7,13.227,3.5,19.256c.072,0,.1.024.144.024h7.223c.169,0,.217-.048.241-.214.1-.882.217-1.764.337-2.669.313-2.431.626-4.862.963-7.316.289-2.145.554-4.29.843-6.435.072-.5.12-1,.193-1.525C9.322,1.144,5.253,1.144,1.136,1.144Z" transform="translate(26.229 4.371)" fill="#fdfdfd"/>
    <path id="Vector-2" data-name="Vector" d="M7.309,11.657H1.763c-.188,0-.259-.045-.282-.223C1.011,7.929.541,4.447.071.942.047.741.024.54,0,.317A8.45,8.45,0,0,1,3.878.161,10.9,10.9,0,0,0,8.531.116,1.566,1.566,0,0,1,8.743.071C8.249,3.956,7.779,7.8,7.309,11.657Z" transform="translate(29.143 10.2)" fill="#fdfdfd"/>
  </g>
</svg>
