<svg id="Group_111" data-name="Group 111" xmlns="http://www.w3.org/2000/svg" width="65.572" height="65.572" viewBox="0 0 65.572 65.572">
  <rect id="Rectangle_33" data-name="Rectangle 33" width="65.572" height="65.572" rx="12" fill="#8857a4"/>
  <g id="_2_User" data-name="2 User" transform="translate(14.571 16.029)">
    <path id="_2_Friends" data-name="2 Friends" d="M0,27.775c0-4.557,6.3-5.7,13.684-5.7,7.421,0,13.685,1.179,13.685,5.74s-6.3,5.7-13.685,5.7C6.263,33.515,0,32.335,0,27.775Zm30.97.885c.635-5.8-4.406-8.543-5.711-9.174a.1.1,0,0,1-.062-.1.081.081,0,0,1,.07-.051,34.148,34.148,0,0,1,6.977.594c2.376.455,3.937,1.381,4.585,2.732a3.922,3.922,0,0,1,0,3.5c-.99,2.092-4.182,2.763-5.423,2.936a.4.4,0,0,1-.057,0A.385.385,0,0,1,30.97,28.66ZM4.629,8.868A8.931,8.931,0,0,1,13.684,0a8.931,8.931,0,0,1,9.056,8.868,8.93,8.93,0,0,1-9.056,8.867A8.931,8.931,0,0,1,4.629,8.868Zm20.914,7.558a7.55,7.55,0,0,1-1.043-.1.329.329,0,0,1-.227-.511,11.975,11.975,0,0,0-.181-13.851.206.206,0,0,1-.034-.23.274.274,0,0,1,.176-.1,7.738,7.738,0,0,1,1.524-.152,7.532,7.532,0,0,1,7.368,9.452,7.52,7.52,0,0,1-7.375,5.5Z" fill="#fcfcfc"/>
  </g>
</svg>
