<svg id="Group_145" data-name="Group 145" xmlns="http://www.w3.org/2000/svg" width="65.572" height="65.572" viewBox="0 0 65.572 65.572">
  <rect id="Rectangle_33" data-name="Rectangle 33" width="65.572" height="65.572" rx="12" fill="#7682ec"/>
  <g id="Group_104" data-name="Group 104" transform="translate(11.658 16.029)">
    <g id="Paper" transform="translate(26.229 4.371)">
      <path id="Paper-2" data-name="Paper" d="M4.085,17.487A4.106,4.106,0,0,1,0,13.369V3.944A3.928,3.928,0,0,1,3.9,0H8.526a.4.4,0,0,1,.4.4V3.218a2.919,2.919,0,0,0,2.892,2.919c.369,0,.694,0,.98.005.223,0,.421,0,.6,0,.123,0,.283,0,.456,0,.2,0,.425-.005.626-.005a.392.392,0,0,1,.389.393V13.56a3.912,3.912,0,0,1-3.887,3.926Zm.009-5.561a.653.653,0,0,0,.649.656H9.453a.662.662,0,0,0,.649-.656.65.65,0,0,0-.649-.648H4.744A.65.65,0,0,0,4.094,11.926Zm0-4.363a.648.648,0,0,0,.649.647H7.669a.651.651,0,0,0,0-1.3H4.744A.653.653,0,0,0,4.094,7.563Zm7.837-2.7A1.763,1.763,0,0,1,10.186,3.1V.792A.412.412,0,0,1,10.9.5l3.486,3.66a.417.417,0,0,1-.3.706h-.57C12.956,4.868,12.379,4.865,11.932,4.86Z" fill="#fff"/>
    </g>
    <g id="_2_User" data-name="2 User">
      <path id="_2_Friends" data-name="2 Friends" d="M0,26.738c0-4.385,6.068-5.483,13.172-5.483,7.143,0,13.173,1.134,13.173,5.525s-6.068,5.484-13.173,5.484C6.03,32.264,0,31.128,0,26.738Zm4.456-18.2A8.6,8.6,0,0,1,13.173,0a8.6,8.6,0,0,1,8.716,8.536,8.6,8.6,0,0,1-8.716,8.536A8.6,8.6,0,0,1,4.456,8.536Z" fill="#fff"/>
    </g>
  </g>
</svg>
