<svg id="Group_111" data-name="Group 111" xmlns="http://www.w3.org/2000/svg" width="65.572" height="65.572" viewBox="0 0 65.572 65.572">
  <rect id="Rectangle_33" data-name="Rectangle 33" width="65.572" height="65.572" rx="12" fill="#fbfbfc" class="change_theme"/>
  <g id="Group_92" data-name="Group 92" transform="translate(14.571 13.114)">
    <path id="Vector" d="M0,9.087c.2-1,.367-2,.612-2.977A6.594,6.594,0,0,1,3.873,1.877,12.272,12.272,0,0,1,9.4.006c1.977-.064,2.507.383,2.895,2.339.489,2.446.938,4.891,1.447,7.337a1.887,1.887,0,0,1-.815,2.19A30.544,30.544,0,0,1,9.3,13.68c-.673.276-.938.659-.775,1.34A20.676,20.676,0,0,0,9.3,17.742a51.755,51.755,0,0,0,6.116,10.165c.367.51.632.383,1.06.043,1.08-.851,2.2-1.6,3.323-2.382.775-.553,1.407-.34,2.039.362,1.753,1.957,3.527,3.892,5.361,5.763a2.84,2.84,0,0,1,.652,3,5.072,5.072,0,0,1-3.058,3.318c-1.264.553-2.609.872-3.914,1.319H18.653a12.886,12.886,0,0,1-6.075-2.935c-5.2-4.636-9.3-10.1-11.151-17.12C.8,16.913.469,14.467,0,12.064Z" transform="translate(0)" fill="#779ce5"/>
    <path id="Vector-2" data-name="Vector" d="M3.682,7.5H.95C.135,7.474-.15,7.027.074,6.24.563,4.412,1.052,2.583,1.6.775A1.267,1.267,0,0,1,2.3.009c.2-.064.632.213.8.468C4.457,2.391,5.8,4.326,7.107,6.3A1.344,1.344,0,0,1,7.25,7.346c-.082.213-.55.34-.836.362-.917.043-1.814.021-2.732.021Z" transform="translate(18.844 11.332)" fill="#779ce5"/>
    <path id="Vector-3" data-name="Vector" d="M3.156,6.448H.934C.2,6.448-.146,6.065.058,5.3.465,3.769.853,2.237,1.3.727c.245-.829.917-.978,1.427-.3C3.89,2.025,5.011,3.662,6.112,5.3c.469.723.143,1.3-.713,1.319-.734.021-1.488,0-2.222,0A.431.431,0,0,1,3.156,6.448Z" transform="translate(25.445 7.935)" fill="#779ce5"/>
    <path id="Vector-4" data-name="Vector" d="M2.513,5.077C-.341,4.971-.341,4.971.454,2.1A11.025,11.025,0,0,1,.862.7c.285-.787.9-.936,1.366-.3C3.064,1.5,3.838,2.653,4.593,3.822c.448.681.143,1.212-.652,1.276h-.2C3.329,5.077,2.921,5.077,2.513,5.077Z" transform="translate(31.633 5.095)" fill="#779ce5"/>
  </g>
</svg>
