<svg id="Group_67" data-name="Group 67" xmlns="http://www.w3.org/2000/svg" width="54.39" height="54.39" viewBox="0 0 54.39 54.39">
  <g id="Group_233" data-name="Group 233">
    <g id="Rectangle_12" data-name="Rectangle 12" fill="#f8fbfd" stroke="#afc6ea" stroke-width="1">
      <rect width="54.39" height="54.39" rx="14" stroke="none"/>
      <rect x="0.5" y="0.5" width="53.39" height="53.39" rx="13.5" fill="none"/>
    </g>
    <g id="Frame" transform="translate(43.501 43.512) rotate(180)">
      <path id="Vector" d="M6.187.692a.649.649,0,0,0-.461-.62A1.228,1.228,0,0,0,5.371.019C3.847,0,2.323.036.8,0,.178-.017-.017.2,0,.816c.053,1.861-.23,1.56,1.577,1.577,1.223.018,2.464.018,3.687,0a1.779,1.779,0,0,0,.425-.071.644.644,0,0,0,.479-.62V.692Z" transform="translate(27.796 15.826)" fill="#cbda1e"/>
      <path id="Vector-2" data-name="Vector" d="M.691,0a.649.649,0,0,0-.62.443A.8.8,0,0,0,.018.727C0,2.3.018,3.881,0,5.477c0,.532.177.727.709.709,1.985-.053,1.648.23,1.666-1.577.018-1.223.018-2.464,0-3.686A1.779,1.779,0,0,0,2.3.5a.644.644,0,0,0-.62-.479H.691Z" transform="translate(15.763)" fill="#cbda1e"/>
      <path id="Vector-3" data-name="Vector" d="M0,9.145A9.083,9.083,0,1,0,9.181,0,9.093,9.093,0,0,0,0,9.145Z" transform="translate(7.876 7.922)" fill="#cbda1e"/>
      <path id="Vector-4" data-name="Vector" d="M2.461.334c-.8,1.4-1.577,2.747-2.375,4.13a.662.662,0,0,0,.23.886l.957.567a.642.642,0,0,0,.851-.177c.053-.071.106-.16.16-.23C3.046,4.18,3.808,2.85,4.57,1.539c.248-.425.213-.673-.248-.9A11.094,11.094,0,0,1,3.347.085.652.652,0,0,0,2.461.334Z" transform="translate(7.702 26.075)" fill="#cbda1e"/>
      <path id="Vector-5" data-name="Vector" d="M1.291.085.316.653a.654.654,0,0,0-.23.886c.8,1.382,1.577,2.729,2.375,4.13a.659.659,0,0,0,.868.248c.408-.23.815-.461,1.187-.709a.555.555,0,0,0,.106-.567C3.826,3.222,3.01,1.8,2.142.334A.6.6,0,0,0,1.291.085Z" transform="translate(7.684 1.971)" fill="#cbda1e"/>
      <path id="Vector-6" data-name="Vector" d="M4.587,4.452c-.8-1.4-1.577-2.729-2.375-4.13A.676.676,0,0,0,1.326.074C1.007.251.67.446.334.623a.644.644,0,0,0-.248.886C.936,2.98,1.734,4.4,2.567,5.8a.687.687,0,0,0,.638.16A10.633,10.633,0,0,0,4.339,5.32.628.628,0,0,0,4.587,4.452Z" transform="translate(21.58 26.068)" fill="#cbda1e"/>
      <path id="Vector-7" data-name="Vector" d="M6.094,1.887c0-.177.018-.213,0-.23C5.137-.364,5.137-.364,3.223.735c-.957.549-1.914,1.117-2.907,1.7a.654.654,0,0,0-.23.886l.549.957a.644.644,0,0,0,.886.248C3.064,3.642,4.57,2.755,6.094,1.887Z" transform="translate(1.941 21.685)" fill="#cbda1e"/>
      <path id="Vector-8" data-name="Vector" d="M5.93,1.273C5.735.937,5.558.635,5.363.316a.654.654,0,0,0-.886-.23C3.095.884,1.73,1.663.33,2.479a.659.659,0,0,0-.248.886c.195.337.372.656.549.975a.624.624,0,0,0,.886.23c1.4-.815,2.765-1.6,4.147-2.393A.663.663,0,0,0,5.93,1.273Z" transform="translate(25.997 7.748)" fill="#cbda1e"/>
      <path id="Vector-9" data-name="Vector" d="M2.258,5.655c.8-1.382,1.577-2.729,2.393-4.112A.648.648,0,0,0,4.438.675,12.682,12.682,0,0,0,3.286.019a.762.762,0,0,0-.673.23C1.762,1.649.964,3.067.131,4.485c-.23.39-.16.638.23.833.337.177.656.354,1.01.567A.624.624,0,0,0,2.258,5.655Z" transform="translate(21.481 1.984)" fill="#cbda1e"/>
      <path id="Vector-10" data-name="Vector" d="M5.651,2.479C4.233,1.663,2.9.9,1.522.086a.658.658,0,0,0-.886.23C.458.635.263.954.086,1.273a.658.658,0,0,0,.23.886c1.382.8,2.729,1.6,4.13,2.41a.658.658,0,0,0,.886-.23c.195-.319.372-.638.567-.975A.644.644,0,0,0,5.651,2.479Z" transform="translate(26.028 21.643)" fill="#cbda1e"/>
      <path id="Vector-11" data-name="Vector" d="M1.527.086a.658.658,0,0,0-.886.23c-.177.3-.354.62-.549.939a.622.622,0,0,0,.195.851,1.531,1.531,0,0,0,.284.177c1.294.762,2.588,1.489,3.864,2.251.408.23.673.266.9-.213a11.094,11.094,0,0,1,.549-.975.658.658,0,0,0-.23-.886Z" transform="translate(1.918 7.73)" fill="#cbda1e"/>
      <path id="Vector-12" data-name="Vector" d="M2.394,3.067c0-.762-.018-1.524,0-2.286.018-.549-.124-.8-.727-.78C-.3.054.037-.212.019,1.614,0,2.854.037,4.077,0,5.318c-.018.585.142.851.78.833C2.7,6.1,2.359,6.328,2.394,4.574Z" transform="translate(15.762 27.843)" fill="#cbda1e"/>
      <path id="Vector-13" data-name="Vector" d="M.007,1.738a.654.654,0,0,0,.656.656c1.737,0,3.385,0,5.016-.018.142,0,.408-.3.425-.5C6.334.072,6.281.019,4.473.019,3.233.019,2.01.037.769,0,.2-.017-.046.161.007.746.025,1.082.007,1.384.007,1.738Z" transform="translate(0 15.808)" fill="#cbda1e"/>
    </g>
  </g>
</svg>
