<svg id="Group_148" data-name="Group 148" xmlns="http://www.w3.org/2000/svg" width="127.236" height="138.764" viewBox="0 0 127.236 138.764">
  <path id="Path_300" data-name="Path 300" d="M225.083.213c.878.329,1.779.609,2.63,1,1.821.834,3.673,1.625,5.407,2.618,1.871,1.071,3.651,2.31,5.417,3.552a44.176,44.176,0,0,1,6,5.453c.358.366.674.772,1.015,1.167-.579.544-1.193.206-1.778.08q-2.569-.555-5.126-1.165a1.525,1.525,0,0,1-.67-.4c-1.435-1.417-2.855-2.85-4.279-4.277-.114-.114-.225-.233-.344-.341q-2.693-2.428-5.387-4.854c-1.039-.939-2.069-1.886-3.1-2.83Z" transform="translate(-181.02 -0.213)" fill="#2095ac"/>
  <path id="Path_301" data-name="Path 301" d="M238.032,679.253c-.378-.1-.763-.188-1.133-.315a3.113,3.113,0,0,1-2.056-2.429,6.72,6.72,0,0,1,.062-3.418,3.081,3.081,0,0,1,2.265-2.257,4.917,4.917,0,0,1,3.056.109,3.162,3.162,0,0,1,2.092,2.968,8.441,8.441,0,0,1-.144,2.707,3.143,3.143,0,0,1-3.008,2.535c-.057.005-.109.066-.163.1Zm2.343-4.347-.081-.016c0-.2.007-.394,0-.591-.038-.939-.411-1.574-1.061-1.766-1.215-.358-2.4.113-2.387,1.53.005.647-.022,1.3.009,1.942a1.675,1.675,0,0,0,1.089,1.412,1.717,1.717,0,0,0,2.07-.77A10.016,10.016,0,0,0,240.375,674.906Z" transform="translate(-188.904 -540.489)" fill="#373736"/>
  <path id="Path_302" data-name="Path 302" d="M509.908,679.15c-.541-.108-1.08-.23-1.624-.318-.324-.052-.45-.2-.429-.53.027-.416.006-.835.006-1.153,1.131.061,2.147.113,3.163.17a.767.767,0,0,0,.337-1.483c-.532-.172-1.07-.33-1.614-.455a2.394,2.394,0,0,1-1.28-3.945,3.135,3.135,0,0,1,1.51-.776,7.009,7.009,0,0,1,3.154.1.466.466,0,0,1,.446.552c-.045.386-.05.776-.073,1.164-.368-.037-.736-.1-1.105-.107a14.88,14.88,0,0,0-1.782.013.79.79,0,0,0-.575.395.576.576,0,0,0,.384.809c.651.2,1.3.421,1.955.6a2.357,2.357,0,0,1,1.544,2.594,2.413,2.413,0,0,1-2.56,2.272c-.056,0-.109.065-.163.1Z" transform="translate(-409.067 -540.386)" fill="#373736"/>
  <path id="Path_303" data-name="Path 303" d="M162.951,679.3c-.5-.108-1.007-.232-1.516-.318-.323-.054-.451-.2-.43-.529.026-.416.006-.835.006-1.157,1.112.062,2.11.11,3.107.176a.762.762,0,0,0,.863-.615c.112-.474-.193-.761-.626-.9-.582-.185-1.168-.361-1.755-.533a2.2,2.2,0,0,1-1.589-2.273,2.279,2.279,0,0,1,1.565-2.189,7.31,7.31,0,0,1,3.758-.033.439.439,0,0,1,.266.318c.03.48.013.963.013,1.344-1-.027-1.951-.063-2.908-.075-.346,0-.632.229-.571.544a1.1,1.1,0,0,0,.54.718c.61.252,1.275.366,1.907.568a2.169,2.169,0,0,1,1.475,1.983,2.442,2.442,0,0,1-2.6,2.874c-.038,0-.073.062-.11.094Z" transform="translate(-129.553 -540.533)" fill="#373736"/>
  <path id="Path_304" data-name="Path 304" d="M623.385,671.272c-.276.441-.569.872-.825,1.324q-.947,1.673-1.861,3.365a1.105,1.105,0,0,0-.11.5c-.01.945-.005,1.891-.005,2.891-.6,0-1.148,0-1.7,0-.343,0-.35-.223-.349-.473,0-.843.012-1.686-.007-2.528a1.407,1.407,0,0,0-.177-.58c-.763-1.486-1.537-2.967-2.305-4.45a3.594,3.594,0,0,1-.134-.369c.676,0,1.293-.015,1.908.015.1,0,.22.191.284.317.521,1.019,1.031,2.044,1.583,3.143.228-.44.433-.834.636-1.228.089-.172.171-.348.261-.52.292-.562.452-1.34.915-1.622s1.246-.093,1.887-.109Z" transform="translate(-496.149 -540.696)" fill="#373736"/>
  <path id="Path_305" data-name="Path 305" d="M-1,671.271a1.685,1.685,0,0,1,.4-.1q2.932-.009,5.865,0a.83.83,0,0,1,.171.042v1.659H3.309v.845c0,1.776-.009,3.551.007,5.327,0,.391-.108.556-.518.533-.482-.028-.967-.007-1.507-.007v-6.68H-1Z" transform="translate(1 -540.911)" fill="#373736"/>
  <path id="Path_306" data-name="Path 306" d="M8.349,534.5v3.287a25.018,25.018,0,0,0-2.4,1.163,4.364,4.364,0,0,0-1.974,2.834A5.333,5.333,0,0,0,6.766,547.7a5.86,5.86,0,0,0,6.274-.672,5.154,5.154,0,0,0,2.117-4.393c0-4.507.007-9.013-.01-13.52,0-.488.116-.668.63-.645.932.04,1.868.034,2.8,0,.462-.016.576.15.574.589q-.019,7.326-.008,14.651v.677H31.847a10.106,10.106,0,0,1-.637-4.2A7.6,7.6,0,0,1,33,535.066a5.489,5.489,0,0,1,3.032-1.607,10.844,10.844,0,0,1,5.143.154,5.3,5.3,0,0,1,3.921,4.154,11.183,11.183,0,0,1-.2,6.327,2.452,2.452,0,0,0-.055.378c.833-.052,1.649-.1,2.464-.154.6-.039.849-.488,1-.961a3.65,3.65,0,0,0,.128-1.1c.01-2.334.005-4.668.005-7v-.6h3.839v9.836a26.317,26.317,0,0,0,3.356-.238,2.341,2.341,0,0,0,1.721-1.966,12.6,12.6,0,0,0,.335-2.674c.036-3.68.015-7.36.015-11.083H61.59v.557q0,5.548,0,11.1a10.35,10.35,0,0,1-.874,4.428,4.852,4.852,0,0,1-4.012,2.916c-1.784.2-3.593.2-5.393.233-1.123.021-2.248-.094-3.372-.091q-14.856.04-29.712.1a.873.873,0,0,0-.8.359,9.407,9.407,0,0,1-6.116,3.65,10.544,10.544,0,0,1-6.593-.878A7.786,7.786,0,0,1,.51,545.428a9.15,9.15,0,0,1,.2-5.412,7.646,7.646,0,0,1,4.672-4.729A29.181,29.181,0,0,1,8.349,534.5Zm29.96,1.926-.04.138a2.58,2.58,0,0,0-2.9,1.922,7.532,7.532,0,0,0-.135,3.621,3.7,3.7,0,0,0,.638,1.411,2.865,2.865,0,0,0,2.806.889c1.392-.166,2.22-.379,2.679-2.2a7.2,7.2,0,0,0,.018-3.2,2.636,2.636,0,0,0-1.232-2.036A9.919,9.919,0,0,0,38.308,536.422Z" transform="translate(0.035 -425.914)" fill="#373736"/>
  <path id="Path_307" data-name="Path 307" d="M108.34,184.306c1.072.649,2.066,1.246,3.055,1.85q3.531,2.157,7.058,4.32,3.863,2.371,7.723,4.748c2.007,1.23,4.021,2.448,6.029,3.677q3.237,1.982,6.468,3.973c2.5,1.533,5,3.069,7.516,4.582a.727.727,0,0,1,.4.725c-.01,2.424-.005,4.847-.005,7.271v.627h8.4v-.57c0-2.424.009-4.847-.009-7.271a.778.778,0,0,1,.412-.769q3-1.81,5.99-3.64,3.239-1.979,6.472-3.967,3.8-2.324,7.6-4.644c2.112-1.295,4.216-2.6,6.328-3.9q3.776-2.313,7.559-4.613c1.184-.724,2.363-1.456,3.545-2.182.089-.055.186-.1.313-.16a1.553,1.553,0,0,1-.814,1.606c-2.365,1.774-4.761,3.507-7.139,5.264-2.422,1.788-4.833,3.592-7.257,5.379-2.352,1.733-4.717,3.447-7.07,5.179-2.013,1.483-4.015,2.981-6.024,4.47-1.429,1.059-2.848,2.131-4.3,3.16a1.144,1.144,0,0,0-.559,1.068c.022,4.991.05,9.982,0,14.973a8.872,8.872,0,0,1-1.995,5.455,10.376,10.376,0,0,1-2.755,2.288c-.064.041-.169.018-.287.027v-7.164h-8.39v7.252c-.462-.258-.858-.437-1.209-.681a8.879,8.879,0,0,1-3.228-4.153,10.225,10.225,0,0,1-.639-3.731c-.024-4.811-.011-9.623-.005-14.434a.821.821,0,0,0-.368-.792c-2.314-1.665-4.6-3.364-6.9-5.061-2.561-1.9-5.113-3.809-7.674-5.707-1.938-1.437-3.884-2.862-5.825-4.294q-3.654-2.7-7.307-5.392-2.125-1.566-4.256-3.125A1.857,1.857,0,0,1,108.34,184.306ZM146.6,223.188h8.355v-4.131H146.6Z" transform="translate(-87.113 -148.567)" fill="#4bbbbe"/>
  <path id="Path_308" data-name="Path 308" d="M230.5,68.907c-.685-.048-1.37-.13-2.055-.137-1.939-.019-3.88-.062-5.816.01-1.716.064-3.429.247-5.139.42-1.457.147-2.916.3-4.358.549-1.764.3-3.527.64-5.259,1.088-2.2.57-4.39,1.217-6.555,1.92a64.481,64.481,0,0,0-8.078,3.323,83.3,83.3,0,0,0-11.156,6.489q-3.69,2.548-7.281,5.24c-1.822,1.364-3.569,2.829-5.351,4.247-.05.04-.115.06-.283.011.372-.639.717-1.3,1.122-1.913.992-1.513,1.976-3.034,3.031-4.5a28.451,28.451,0,0,1,2.235-2.7c1.228-1.327,2.48-2.634,3.78-3.889a43.744,43.744,0,0,1,6.847-5.422c1.657-1.058,3.379-2.016,5.1-2.977a41.654,41.654,0,0,1,8.762-3.557,53.3,53.3,0,0,1,6.059-1.34c1.757-.3,3.547-.41,5.327-.551a23.285,23.285,0,0,1,3.424-.1c2.026.14,4.047.379,6.064.625a28.01,28.01,0,0,1,6.364,1.619c1.106.412,2.184.9,3.274,1.354Z" transform="translate(-136.134 -52.496)" fill="#4bbbbe"/>
  <path id="Path_309" data-name="Path 309" d="M247.521,368.857c0,1.851,0,3.644,0,5.436a11.65,11.65,0,0,0,2.6,7.537,11.838,11.838,0,0,0,6.649,4.149v-9.4h2.616c.628,0,1.258.023,1.885-.008.443-.022.591.118.588.576-.019,2.729-.01,5.457-.01,8.186v.623a11.9,11.9,0,0,0,6.911-4.56,12.093,12.093,0,0,0,2.123-4.937,7.362,7.362,0,0,0,.118-1.43c.012-2.041.005-4.081.125-6.172.276.472.562.938.827,1.416,1.194,2.153,2.4,4.3,3.55,6.476a1.834,1.834,0,0,1-.023,1.1,16.128,16.128,0,0,1-3.1,6.74,16.446,16.446,0,0,1-4.721,4.169,16.761,16.761,0,0,1-5.823,2.059,2.533,2.533,0,0,0-.859.482c-.457.3-.912.6-1.351.921a.454.454,0,0,1-.644-.02c-.287-.232-.626-.4-.9-.651-.861-.794-2-.78-3.028-1.073a16.9,16.9,0,0,1-6.372-3.287,16.45,16.45,0,0,1-4.318-5.514,16.186,16.186,0,0,1-1.416-4.555.821.821,0,0,1,.128-.471q2.128-3.856,4.272-7.7C247.369,368.926,247.412,368.917,247.521,368.857Z" transform="translate(-195.592 -297.291)" fill="#2095ac"/>
  <path id="Path_310" data-name="Path 310" d="M589.031,570.959c-1.094,0-2.156.069-3.205-.019a17.676,17.676,0,0,1-3.483-.547,4.729,4.729,0,0,1-3.389-4.293,14.087,14.087,0,0,1-.1-3.15c.265-2.912,1.631-4.836,4.742-5.456a10.882,10.882,0,0,1,5.757.3,4.913,4.913,0,0,1,3.358,4.034,16.954,16.954,0,0,1,.225,2.913c.031,2.189.006,4.379.011,6.569a5.473,5.473,0,0,1-1.252,3.717,5.171,5.171,0,0,1-3.022,1.619,18.556,18.556,0,0,1-2.89.325c-1.719.051-3.441.014-5.206.014a18.666,18.666,0,0,1-.139-3.206c.207-.01.378-.025.55-.025,1.4,0,2.8.034,4.2-.015a13.729,13.729,0,0,0,2.244-.31C588.585,573.2,589.124,572.356,589.031,570.959Zm.08-3.449c-.052-1.575-.037-3.2-.185-4.813a2.167,2.167,0,0,0-1.851-2.029,7.6,7.6,0,0,0-2.305.008,2.117,2.117,0,0,0-1.912,1.951,12.144,12.144,0,0,0-.007,2.956,2.12,2.12,0,0,0,2.016,1.912C586.235,567.557,587.609,567.51,589.11,567.51Z" transform="translate(-466.243 -449.109)" fill="#373736"/>
  <path id="Path_311" data-name="Path 311" d="M361.174,117.345l-2.516-1.965c-1.4-1.1-2.789-2.217-4.213-3.288-1.8-1.354-3.6-2.709-5.456-3.988-1.589-1.1-3.236-2.113-4.886-3.12-1.26-.769-2.533-1.525-3.852-2.184-2.374-1.186-4.784-2.3-7.186-3.432-.537-.253-1.1-.443-1.812-.723.563-.2.98-.372,1.411-.493,2.311-.646,4.617-1.317,6.949-1.879a2.143,2.143,0,0,1,1.36.476c2,1.282,3.986,2.574,5.93,3.932a31.6,31.6,0,0,1,2.784,2.292c1.055.933,2.106,1.875,3.091,2.879a50.147,50.147,0,0,1,5.949,7.258c.828,1.24,1.564,2.542,2.339,3.818a3.982,3.982,0,0,1,.173.362Z" transform="translate(-266.753 -77.611)" fill="#4bbbbe"/>
  <path id="Path_312" data-name="Path 312" d="M395.134,564.7a10.844,10.844,0,0,1-.657,3.535,4.322,4.322,0,0,1-2.931,2.675,21.778,21.778,0,0,1-2.643.449,9.4,9.4,0,0,1-4.03-.329,4.841,4.841,0,0,1-3.792-4.083,11.061,11.061,0,0,1-.219-2.856,6.144,6.144,0,0,1,1.894-4.614,5.855,5.855,0,0,1,2.825-1.346,11.1,11.1,0,0,1,6.061.369,4.887,4.887,0,0,1,3.194,3.833C395,563.11,395.039,563.912,395.134,564.7Zm-7.321,3.319a7.593,7.593,0,0,0,.849,0,2.278,2.278,0,0,0,2.282-1.675,5.628,5.628,0,0,0,.1-2.985,2.223,2.223,0,0,0-1.691-1.814,5.71,5.71,0,0,0-2.668-.051,2.1,2.1,0,0,0-1.72,1.532A5.733,5.733,0,0,0,385,566.4a2.812,2.812,0,0,0,.637.98A2.62,2.62,0,0,0,387.813,568.021Z" transform="translate(-306.72 -449.619)" fill="#373736"/>
  <path id="Path_313" data-name="Path 313" d="M169.7,68.876c.891-.384,1.758-.844,2.678-1.138,1.934-.617,3.883-1.2,5.851-1.691a18.892,18.892,0,0,1,3.244-.455c2.112-.15,4.229-.312,6.344-.307a33.673,33.673,0,0,1,4.813.421c2.216.327,4.413.778,6.619,1.176l-.008.2c-.664.251-1.339.479-1.991.758-2.017.864-4.023,1.753-6.04,2.617a1.276,1.276,0,0,1-.675.08c-1.855-.31-3.7-.689-5.561-.95-1.559-.218-3.133-.368-4.705-.435-2.856-.121-5.716-.169-8.574-.22-.646-.012-1.293.088-1.939.136Z" transform="translate(-136.561 -52.653)" fill="#4bbbbe"/>
  <path id="Path_314" data-name="Path 314" d="M271.8,136.432c-.189-.788-.429-1.567-.556-2.364a26.883,26.883,0,0,1-.42-6.318c.169-2.142.455-4.281.8-6.4a41.031,41.031,0,0,1,2.283-7.537c.326-.88,1.05-1.14,1.753-1.453,1.714-.766,3.451-1.481,5.179-2.215.254-.108.511-.21.935-.385a62.418,62.418,0,0,0-6.45,12.818A72.207,72.207,0,0,0,271.8,136.432Z" transform="translate(-218.014 -88.491)" fill="#2095ac"/>
  <path id="Path_315" data-name="Path 315" d="M328.273,110.178c.973.388,1.793.686,2.587,1.04,1.51.673,3.009,1.372,4.5,2.082a1.011,1.011,0,0,1,.426.467,32.107,32.107,0,0,1,2.183,6.524,38.337,38.337,0,0,1,.8,4.784,47.121,47.121,0,0,1,.215,5.556,22.394,22.394,0,0,1-.949,5.985,2.306,2.306,0,0,1-.155.3A64.243,64.243,0,0,0,328.273,110.178Z" transform="translate(-264.35 -88.83)" fill="#2095ac"/>
  <path id="Path_316" data-name="Path 316" d="M445.779,560.3h3.986v.6c0,2.512.008,5.024,0,7.536a18.379,18.379,0,0,1-.535,4.946c-.744,2.643-2.313,4.457-5.133,4.868-1.415.206-2.858.222-4.323.326V575.2c.647-.055,1.3-.091,1.943-.168a3.774,3.774,0,0,0,3.278-1.877,5.408,5.408,0,0,0,.649-2.082c.11-2.483.105-4.972.135-7.458C445.79,562.52,445.779,561.429,445.779,560.3Z" transform="translate(-354.204 -451.567)" fill="#373736"/>
  <path id="Path_317" data-name="Path 317" d="M515.231,578.656V575.27c.657-.055,1.307-.1,1.956-.165a3.879,3.879,0,0,0,3.928-3.737,76.567,76.567,0,0,0,.233-9.428c.007-.5,0-1,0-1.55H525.2c.007.155.023.327.023.5,0,3.086.042,6.173-.016,9.259a11.789,11.789,0,0,1-.9,4.528,5.821,5.821,0,0,1-4.547,3.634C518.3,578.556,516.789,578.547,515.231,578.656Z" transform="translate(-415.013 -451.642)" fill="#373736"/>
  <path id="Path_318" data-name="Path 318" d="M502.85,529.221h3.962c.008.172.023.344.024.516,0,6-.006,11.991.012,17.987,0,.527-.155.682-.67.659-.878-.038-1.76-.042-2.638,0-.537.026-.706-.124-.7-.683.023-4.6.013-9.19.013-13.786v-4.694Z" transform="translate(-405.025 -426.523)" fill="#373736"/>
  <path id="Path_319" data-name="Path 319" d="M328.2,548.393V529.247h3.857v.55q0,8.965.01,17.93c0,.5-.108.7-.651.679C330.364,548.363,329.307,548.393,328.2,548.393Z" transform="translate(-264.294 -426.544)" fill="#373736"/>
  <path id="Path_320" data-name="Path 320" d="M314.271,203.968V189.683H319.3c.007.153.022.325.022.5,0,4.379-.008,8.758.012,13.137,0,.524-.151.673-.668.662C317.219,203.946,315.769,203.968,314.271,203.968Z" transform="translate(-253.066 -152.901)" fill="#2095ac"/>
  <path id="Path_321" data-name="Path 321" d="M319.344,284.582h-4.986v-12.96a1.675,1.675,0,0,1,.288-.049c1.418,0,2.836,0,4.253-.007.319,0,.5.057.5.439q-.016,6.218-.013,12.436A.66.66,0,0,1,319.344,284.582Z" transform="translate(-253.137 -218.888)" fill="#2095ac"/>
  <path id="Path_322" data-name="Path 322" d="M329.646,14A44.591,44.591,0,0,1,349.377,1.718c-.65.571-1.293,1.15-1.952,1.71-.822.7-1.68,1.354-2.484,2.073-1.658,1.483-3.309,2.975-4.928,4.5-1.141,1.076-2.257,2.182-3.321,3.334a2.987,2.987,0,0,1-1.829.924c-1.277.22-2.538.54-3.81.792a.819.819,0,0,1-.619-.118A7.853,7.853,0,0,1,329.646,14Z" transform="translate(-265.457 -1.426)" fill="#2095ac"/>
  <path id="Path_323" data-name="Path 323" d="M316.769,113.8c.37.593.679,1.059.958,1.542.4.685.745,1.4,1.161,2.069a2.605,2.605,0,0,1,.358,1.459q-.022,3.768,0,7.535c0,.448-.129.59-.58.583-1.47-.025-2.94-.009-4.492-.009V126.4c0-2.422.012-4.844-.009-7.266a2.744,2.744,0,0,1,.352-1.47C315.247,116.42,315.969,115.177,316.769,113.8Z" transform="translate(-252.983 -91.752)" fill="#2095ac"/>
  <path id="Path_324" data-name="Path 324" d="M385.42,679.508c-.547,0-1.05-.016-1.552.005-.366.015-.458-.149-.455-.485.012-1.328.005-2.657,0-3.985v-.678c-.488.628-.883,1.132-1.273,1.641-.182.237-.343.489-.531.72a.516.516,0,0,1-.87-.051c-.516-.723-1.027-1.45-1.635-2.31v2.6c0,.7-.01,1.4,0,2.1.006.318-.1.46-.435.449-.517-.017-1.034,0-1.583,0v-8.4a15.77,15.77,0,0,1,1.779.024c.2.023.405.293.547.493.606.853,1.189,1.723,1.787,2.6.735-.989,1.446-1.95,2.167-2.9a.5.5,0,0,1,.313-.2c.571-.02,1.142-.009,1.734-.009Z" transform="translate(-303.693 -540.852)" fill="#373736"/>
  <path id="Path_325" data-name="Path 325" d="M119.071,671.052c1.144-.183,2.011-.048,2.56,1.17a26.234,26.234,0,0,0,1.934,3.134,4.471,4.471,0,0,0,.311.378V671.02c.6,0,1.167-.022,1.731.018a.5.5,0,0,1,.306.377c.018,2.531.011,5.062.017,7.594,0,.3-.109.428-.411.417a7.388,7.388,0,0,1-1.02-.018,1.014,1.014,0,0,1-.62-.356c-.92-1.387-1.807-2.8-2.8-4.348v1.348c0,.969-.01,1.939.005,2.908.006.352-.123.482-.472.468-.5-.02-1-.005-1.541-.005Z" transform="translate(-95.761 -540.766)" fill="#373736"/>
  <path id="Path_326" data-name="Path 326" d="M449.5,674.77v4.687h-1.9V671.1c.513,0,1.028-.016,1.54.012a.541.541,0,0,1,.34.25c.85,1.331,1.687,2.671,2.531,4.005a3.217,3.217,0,0,0,.293.332c0-1.378.023-2.679-.012-3.978-.014-.508.149-.672.643-.629.443.038.893.008,1.377.008v8.4c-.527,0-1.059.012-1.589-.01a.485.485,0,0,1-.31-.223c-.87-1.361-1.728-2.728-2.593-4.092C449.746,675.061,449.65,674.962,449.5,674.77Z" transform="translate(-360.51 -540.845)" fill="#373736"/>
  <path id="Path_327" data-name="Path 327" d="M285.31,676.468a8.051,8.051,0,0,1,1.883,3.169c-.737,0-1.378.013-2.016-.013-.11,0-.251-.155-.313-.272-.235-.448-.434-.915-.663-1.367a1.353,1.353,0,0,0-1.811-.75v2.4c-.607,0-1.158,0-1.708,0-.39,0-.348-.276-.348-.527q0-2.932,0-5.865c0-.538-.025-1.078.017-1.613.011-.141.231-.38.354-.38,1.23.006,2.465,0,3.689.1a2.063,2.063,0,0,1,2.149,1.994A2.849,2.849,0,0,1,285.31,676.468Zm-2.907-1.013c.684-.121,1.454.275,1.9-.457a1.419,1.419,0,0,0,0-1.642c-.483-.612-1.226-.354-1.9-.393Z" transform="translate(-225.712 -540.982)" fill="#373736"/>
  <path id="Path_328" data-name="Path 328" d="M39.382,676.746v2.406H37.493v-8.469c1.489.1,2.981.122,4.449.32,1.4.19,1.859,1.635,1.687,2.949a2.612,2.612,0,0,1-1.164,2.014c.339.486.709.954,1.008,1.463s.526,1.058.831,1.685H42.1a18.768,18.768,0,0,0-1.014-1.826C40.636,676.644,40.466,676.633,39.382,676.746Zm.011-4.213v2.4c1.717.21,2.121-.215,2.169-1.109C41.621,672.732,41.3,672.386,39.393,672.532Z" transform="translate(-30.02 -540.522)" fill="#373736"/>
  <path id="Path_329" data-name="Path 329" d="M587.442,679.525c-.71,0-1.336.017-1.96-.015-.12-.006-.268-.181-.34-.312-.269-.491-.509-1-.766-1.5-.359-.7-.972-.746-1.7-.608v2.4h-1.932v-8.369c.481,0,.976-.022,1.467,0a26.42,26.42,0,0,1,3.067.233,2.2,2.2,0,0,1,1.6,2.154,2.9,2.9,0,0,1-1.266,2.854A6.611,6.611,0,0,1,587.442,679.525Zm-4.771-4.174c.714-.123,1.56.288,1.945-.49a1.915,1.915,0,0,0,0-1.548c-.412-.742-1.244-.412-1.944-.461Z" transform="translate(-467.806 -540.869)" fill="#373736"/>
  <path id="Path_330" data-name="Path 330" d="M81.546,679.513c-.71,0-1.367.013-2.023-.015-.1,0-.229-.191-.264-.316-.135-.486-.238-.981-.358-1.5-.856,0-1.679-.01-2.5.011-.117,0-.233.154-.344.242-.023.018-.022.065-.032.1-.133.484-.134,1.253-.429,1.39a4.961,4.961,0,0,1-1.877.063c.1-.471.161-.92.3-1.343q1.1-3.37,2.241-6.725a.615.615,0,0,1,.458-.3c.5-.039,1.005.008,1.506-.021a.653.653,0,0,1,.772.44A61.886,61.886,0,0,1,81.546,679.513Zm-3.057-3.562-.866-3.043-.118-.006-.926,3.049Z" transform="translate(-59.212 -540.86)" fill="#373736"/>
  <path id="Path_331" data-name="Path 331" d="M198.975,671.565c1.32,0,2.607-.082,3.88.019,2.046.162,2.457,2.013,2.3,3.456a2.56,2.56,0,0,1-1.361,2.249,10.332,10.332,0,0,1-2.07.521,3.835,3.835,0,0,1-.739.007c0,.544-.022,1.042.007,1.538.023.412-.144.536-.534.515-.48-.025-.963-.006-1.482-.006Zm2.031,4.422c.708-.065,1.567.294,1.879-.55a2.48,2.48,0,0,0-.043-1.778c-.344-.69-1.159-.453-1.836-.458Z" transform="translate(-160.153 -541.208)" fill="#373736"/>
  <path id="Path_332" data-name="Path 332" d="M320.182,679.544c-.559,0-1.025-.025-1.488.007-.442.03-.593-.116-.588-.574.024-1.811.01-3.623.01-5.434v-.649h-2.261c0-.515-.026-.976.018-1.43a.5.5,0,0,1,.374-.308c1.919-.02,3.838-.009,5.757-.019.341,0,.436.15.425.459-.015.394,0,.788,0,1.241h-2.244Z" transform="translate(-254.337 -540.888)" fill="#373736"/>
  <path id="Path_333" data-name="Path 333" d="M546.687,679.675H544.73v-6.644h-2.225v-1.7h6.4v1.663h-2.213Z" transform="translate(-436.993 -541.042)" fill="#373736"/>
  <path id="Path_334" data-name="Path 334" d="M490.745,679.557v-8.4c.59,0,1.175-.018,1.756.017.1.006.268.234.268.36q.024,3.822,0,7.644a.5.5,0,0,1-.322.361C491.9,679.579,491.343,679.557,490.745,679.557Z" transform="translate(-395.281 -540.902)" fill="#373736"/>
  <path id="Path_335" data-name="Path 335" d="M428.748,671.267h1.867v8.354h-1.867Z" transform="translate(-345.32 -540.993)" fill="#373736"/>
  <path id="Path_336" data-name="Path 336" d="M171.587,528.586h3.981c0,1.021.01,2.035-.016,3.048,0,.1-.232.266-.359.269-1.076.022-2.153.024-3.228,0-.129,0-.358-.2-.361-.32C171.575,530.6,171.587,529.616,171.587,528.586Z" transform="translate(-138.08 -426.011)" fill="#373736"/>
  <path id="Path_337" data-name="Path 337" d="M394.673,527.546h3.981c0,1.02.009,2.035-.015,3.049,0,.091-.208.252-.321.254-1.094.019-2.188.025-3.282-.006a.534.534,0,0,1-.347-.386C394.658,529.508,394.673,528.558,394.673,527.546Z" transform="translate(-317.857 -425.173)" fill="#373736"/>
  <path id="Path_338" data-name="Path 338" d="M248.93,528.655h3.811v3.273H248.93Z" transform="translate(-200.41 -426.067)" fill="#373736"/>
  <path id="Path_339" data-name="Path 339" d="M205.037,528.729V532h-3.812v-3.273Z" transform="translate(-161.966 -426.127)" fill="#373736"/>
  <path id="Path_340" data-name="Path 340" d="M546.846,531.967V528.7h3.831v3.265Z" transform="translate(-440.491 -426.105)" fill="#373736"/>
  <path id="Path_341" data-name="Path 341" d="M428.108,530.88H424.3V527.6h3.811Z" transform="translate(-341.733 -425.215)" fill="#373736"/>
</svg>
