<svg xmlns="http://www.w3.org/2000/svg" width="19.141" height="19.137" viewBox="0 0 19.141 19.137">
  <path id="Path_342" data-name="Path 342" d="M-.626,1113.9h-.785l-.163-.03a12.371,12.371,0,0,1-1.443-.28,6.5,6.5,0,0,1-3.818-3.071,6.478,6.478,0,0,1-.6-5.245,6.454,6.454,0,0,1,3.622-4.162,6.5,6.5,0,0,1,5.292-.125c.39.154.757.365,1.092.529l3.917-3.914h-.16c-.629,0-1.258,0-1.887,0a1.452,1.452,0,0,1-.925-.292,1.417,1.417,0,0,1,.89-2.545q2.765-.006,5.53,0a1.35,1.35,0,0,1,1.187.589,3.74,3.74,0,0,1,.286.679v5.943c-.012.041-.026.082-.036.124a1.417,1.417,0,0,1-2.8-.332c-.009-.654,0-1.308,0-1.961,0-.052-.007-.1-.011-.151l-3.929,3.93a.234.234,0,0,0,.016.038c.028.049.057.1.085.145a6.488,6.488,0,0,1,.429,5.987,6.485,6.485,0,0,1-4.61,3.948C.164,1113.807-.235,1113.841-.626,1113.9Zm3.467-6.705a3.882,3.882,0,0,0-3.863-3.866,3.873,3.873,0,0,0-3.864,3.861,3.863,3.863,0,0,0,3.869,3.871A3.872,3.872,0,0,0,2.841,1107.2Z" transform="translate(7.734 -1094.767)" fill="#50b0ea"/>
</svg>
