<svg id="Group_95" data-name="Group 95" xmlns="http://www.w3.org/2000/svg" width="65.572" height="65.572" viewBox="0 0 65.572 65.572">
  <path id="Rectangle_33" data-name="Rectangle 33" d="M12,0H53.572a12,12,0,0,1,12,12V53.572a12,12,0,0,1-12,12H12a12,12,0,0,1-12-12V12A12,12,0,0,1,12,0Z" fill="#fdfdfd" class="change_theme"/>
  <g id="Group_94" data-name="Group 94" transform="translate(16.029 18.943)">
    <path id="Vector" d="M28.345,12.636H25.726A2.144,2.144,0,0,1,23.4,10.261c-.015-.681-.046-1.362,0-2.043a.877.877,0,0,0-.728-1.061,19.009,19.009,0,0,0-10.18-.412c-2.82.713-2.278.348-2.34,3.041a5.694,5.694,0,0,1-.108,1.251,2.051,2.051,0,0,1-2.03,1.6q-2.928.024-5.857,0A2.147,2.147,0,0,1,.021,10.593,7.2,7.2,0,0,1,3.058,3.8,20.2,20.2,0,0,1,12.571.3,35.565,35.565,0,0,1,24.982.852a12.037,12.037,0,0,1,6.942,4.229,7.58,7.58,0,0,1,1.534,5.749,2.038,2.038,0,0,1-2.092,1.806C30.359,12.652,29.352,12.636,28.345,12.636Z" transform="translate(0 13.582)" fill="#3ec8b2"/>
    <path id="Vector-2" data-name="Vector" d="M9.994,1.225C12.38.8,14.518.4,16.657.022c.4-.079.744.048.651.57-.372,2.17-.759,4.324-1.147,6.494a2.858,2.858,0,0,1-.17.3c-.356-.348-.713-.665-1.038-1.014-.434-.475-.79-.507-1.271,0-1.58,1.647-3.192,3.263-4.8,4.878-.7.7-1.224.713-1.921,0Q3.75,8,.589,4.742C-.2,3.934-.186,3.506.573,2.683c.17-.19.356-.38.542-.57.728-.713,1.255-.729,1.968,0,1.425,1.441,2.851,2.867,4.246,4.34.434.443.7.443,1.116-.016.837-.919,1.7-1.821,2.6-2.677.48-.459.542-.824.046-1.3C10.753,2.112,10.459,1.748,9.994,1.225Z" transform="translate(8.264 0)" fill="#3ec8b2"/>
  </g>
</svg>
