<svg xmlns="http://www.w3.org/2000/svg" width="55" height="55" viewBox="0 0 55 55">
  <g id="Group_232" data-name="Group 232" transform="translate(-3 0)">
    <g id="Group_66" data-name="Group 66" transform="translate(3)">
      <rect id="Rectangle_12" data-name="Rectangle 12" width="55" height="55" rx="14" transform="translate(0 0)" fill="#3c3c3c"/>
    </g>
    <g id="Group_81" data-name="Group 81" transform="translate(14 13.975)">
      <path id="Vector" d="M22.073,16.4a12.028,12.028,0,0,1-8.145,6.448,17.162,17.162,0,0,1-2.376.339c-.113-.566-.113-.905-.226-1.358A6.157,6.157,0,0,0,5.9,17.2c-.226,0-.226,0-.339-.226A6.476,6.476,0,0,0,.239,12.444c-.226,0-.226-.113-.226-.339A11.506,11.506,0,0,1,6.8,1.131,13.349,13.349,0,0,1,10.986.113C11.552.113,12.231,0,12.91,0A.35.35,0,0,0,12.8.226c-.339.566-.792,1.131-1.131,1.7A9.423,9.423,0,0,0,17.887,16.29a10.635,10.635,0,0,0,3.281,0A2.205,2.205,0,0,0,22.073,16.4Z" transform="translate(10.627)" fill="#fff"/>
      <path id="Vector-2" data-name="Vector" d="M5.436,6.695A8.732,8.732,0,0,1,5.21,5,4.652,4.652,0,0,1,9.4.02a4.772,4.772,0,0,1,5.2,3.846c0,.339.113.679.113,1.018a1.435,1.435,0,0,0,.679-.113,4.313,4.313,0,0,1,4.864,4.073,4.255,4.255,0,0,1-4.186,4.525H3.4A3.059,3.059,0,0,1,.346,11.333,3.287,3.287,0,0,1,.8,7.713,3.313,3.313,0,0,1,4.192,6.468,4.811,4.811,0,0,1,5.436,6.695Z" transform="translate(0 14.234)" fill="#fff"/>
    </g>
  </g>
</svg>
