<svg xmlns="http://www.w3.org/2000/svg" width="65.572" height="65.572" viewBox="0 0 65.572 65.572">
  <g id="Group_144" data-name="Group 144" transform="translate(-274.313 3.681)">
    <rect id="Rectangle_33" data-name="Rectangle 33" width="65.572" height="65.572" rx="12" transform="translate(274.313 -3.681)" fill="#f5f5f6" class="change_theme"/>
    <g id="Group_93" data-name="Group 93" transform="translate(290.342 9.434)">
      <g id="Group_86" data-name="Group 86" transform="translate(17.486 4.371)">
        <path id="Vector" d="M3.854,8.5a2.818,2.818,0,0,1,.235-.323Q7.846,4.413,11.595.653a1.864,1.864,0,0,1,2.857,2.394c-.1.11-.2.213-.3.316Q10.438,7.087,6.718,10.8c-.1.1-.176.191-.316.338.191.007.316.022.441.022.815,0,1.638-.015,2.453.007a1.86,1.86,0,0,1,.433,3.672,2.547,2.547,0,0,1-.58.051c-2.372,0-4.737.007-7.109,0A1.846,1.846,0,0,1,.006,12.881C0,10.472,0,8.071.006,5.662a1.852,1.852,0,0,1,3.643-.536,3.435,3.435,0,0,1,.066.727c.007.859,0,1.726,0,2.585A.814.814,0,0,1,3.854,8.5Z" transform="matrix(0.988, 0.157, -0.157, 0.988, 2.338, 0)" fill="#f18080"/>
      </g>
      <g id="Group_92" data-name="Group 92">
        <path id="Vector-2" data-name="Vector" d="M0,9.087c.2-1,.367-2,.612-2.977A6.594,6.594,0,0,1,3.873,1.877,12.272,12.272,0,0,1,9.4.006c1.977-.064,2.507.383,2.895,2.339.489,2.446.938,4.891,1.447,7.337a1.887,1.887,0,0,1-.815,2.19A30.544,30.544,0,0,1,9.3,13.68c-.673.276-.938.659-.775,1.34A20.677,20.677,0,0,0,9.3,17.742a51.755,51.755,0,0,0,6.116,10.165c.367.51.632.383,1.06.043,1.08-.851,2.2-1.595,3.323-2.382.775-.553,1.407-.34,2.039.362,1.753,1.957,3.527,3.892,5.361,5.763a2.84,2.84,0,0,1,.652,3,5.072,5.072,0,0,1-3.058,3.318c-1.264.553-2.609.872-3.914,1.319H18.653a12.886,12.886,0,0,1-6.075-2.935c-5.2-4.636-9.3-10.1-11.151-17.12C.8,16.913.469,14.467,0,12.064Z" fill="#f18080"/>
      </g>
    </g>
  </g>
</svg>
