<svg xmlns="http://www.w3.org/2000/svg" width="78.029" height="87.377" viewBox="0 0 78.029 87.377">
  <g id="Group_146" data-name="Group 146" transform="translate(-108.339 -0.213)">
    <path id="Path_288" data-name="Path 288" d="M225.066.213c.807.3,1.635.56,2.417.918,1.674.766,3.376,1.494,4.97,2.407,1.72.985,3.356,2.123,4.979,3.265a40.6,40.6,0,0,1,5.518,5.012c.329.336.619.709.933,1.073-.532.5-1.1.19-1.634.073q-2.361-.51-4.711-1.071a1.4,1.4,0,0,1-.616-.369c-1.319-1.3-2.624-2.619-3.933-3.932-.1-.105-.206-.214-.317-.313Q230.2,5.044,227.72,2.814c-.955-.863-1.9-1.734-2.852-2.6Z" transform="translate(-95.735)" fill="#2095ac"/>
    <path id="Path_289" data-name="Path 289" d="M108.34,184.306c.986.6,1.9,1.145,2.808,1.7q3.246,1.983,6.488,3.971,3.551,2.179,7.1,4.364c1.845,1.131,3.7,2.251,5.541,3.38q2.975,1.821,5.946,3.652c2.3,1.409,4.6,2.821,6.908,4.212a.668.668,0,0,1,.368.666c-.009,2.228,0,4.456,0,6.683v.577h7.724v-.524c0-2.228.008-4.456-.009-6.683a.715.715,0,0,1,.378-.707q2.759-1.664,5.506-3.346,2.977-1.819,5.949-3.647,3.492-2.137,6.987-4.269c1.941-1.19,3.875-2.392,5.817-3.581q3.471-2.126,6.948-4.24c1.089-.665,2.172-1.338,3.259-2.006.082-.05.171-.088.288-.147a1.427,1.427,0,0,1-.748,1.477c-2.174,1.631-4.376,3.224-6.562,4.838-2.227,1.644-4.443,3.3-6.671,4.944-2.162,1.593-4.336,3.168-6.5,4.761-1.851,1.363-3.691,2.74-5.537,4.109-1.313.974-2.618,1.959-3.951,2.9a1.051,1.051,0,0,0-.513.982c.02,4.587.046,9.176,0,13.763a8.155,8.155,0,0,1-1.834,5.014,9.537,9.537,0,0,1-2.533,2.1c-.059.038-.156.016-.264.025V222.7h-7.712v6.666c-.425-.237-.789-.4-1.112-.626a8.162,8.162,0,0,1-2.967-3.817,9.4,9.4,0,0,1-.587-3.43c-.022-4.422-.011-8.845,0-13.268a.754.754,0,0,0-.339-.728c-2.127-1.531-4.232-3.092-6.338-4.652-2.354-1.744-4.7-3.5-7.054-5.246q-2.672-1.981-5.354-3.947-3.359-2.478-6.717-4.956-1.953-1.44-3.912-2.873A1.707,1.707,0,0,1,108.34,184.306Zm35.173,35.74h7.68v-3.8h-7.68Z" transform="translate(0 -151.243)" fill="#4bbbbe"/>
    <path id="Path_290" data-name="Path 290" d="M225.544,68.6c-.63-.044-1.259-.12-1.889-.126-1.782-.017-3.566-.057-5.346.009-1.577.059-3.152.227-4.724.386-1.339.135-2.681.276-4.006.5-1.621.279-3.242.588-4.834,1-2.025.524-4.035,1.118-6.025,1.765a59.272,59.272,0,0,0-7.426,3.054,76.57,76.57,0,0,0-10.255,5.965q-3.392,2.342-6.692,4.817c-1.675,1.254-3.281,2.6-4.918,3.9-.046.036-.105.055-.26.01.342-.587.659-1.191,1.031-1.759.911-1.391,1.816-2.788,2.786-4.138a26.148,26.148,0,0,1,2.055-2.478c1.128-1.219,2.28-2.421,3.474-3.575a40.209,40.209,0,0,1,6.294-4.984c1.523-.973,3.106-1.853,4.684-2.736a38.287,38.287,0,0,1,8.054-3.27,48.994,48.994,0,0,1,5.569-1.231c1.615-.272,3.261-.377,4.9-.506a21.4,21.4,0,0,1,3.147-.089c1.862.129,3.72.348,5.574.575a25.746,25.746,0,0,1,5.849,1.488c1.017.378,2.008.827,3.01,1.245Z" transform="translate(-49.976 -53.301)" fill="#4bbbbe"/>
    <path id="Path_291" data-name="Path 291" d="M247.151,368.857c0,1.7,0,3.349,0,5a10.708,10.708,0,0,0,2.392,6.928,10.881,10.881,0,0,0,6.112,3.814V375.96h2.4c.577,0,1.156.022,1.732-.007.407-.021.543.108.54.529-.018,2.508-.009,5.016-.009,7.525v.572a10.934,10.934,0,0,0,6.353-4.192,11.116,11.116,0,0,0,1.952-4.538,6.768,6.768,0,0,0,.108-1.315c.011-1.876,0-3.751.115-5.673.254.434.516.863.76,1.3,1.1,1.979,2.207,3.952,3.263,5.953a1.686,1.686,0,0,1-.021,1.013A14.825,14.825,0,0,1,270,383.323a15.116,15.116,0,0,1-4.339,3.832,15.406,15.406,0,0,1-5.352,1.892,2.329,2.329,0,0,0-.789.443c-.42.273-.839.55-1.242.847a.417.417,0,0,1-.592-.018c-.263-.213-.576-.37-.823-.6-.791-.73-1.835-.717-2.783-.987a15.532,15.532,0,0,1-5.857-3.022,15.12,15.12,0,0,1-3.969-5.068,14.875,14.875,0,0,1-1.3-4.187.755.755,0,0,1,.118-.433q1.956-3.545,3.927-7.082C247.012,368.92,247.052,368.912,247.151,368.857Z" transform="translate(-110.591 -302.862)" fill="#2095ac"/>
    <path id="Path_292" data-name="Path 292" d="M358.756,115.64l-2.312-1.806c-1.29-1.009-2.564-2.038-3.872-3.022-1.655-1.245-3.311-2.49-5.015-3.666-1.461-1.009-2.975-1.942-4.491-2.868-1.158-.707-2.329-1.4-3.541-2.007-2.183-1.09-4.4-2.116-6.605-3.155-.494-.232-1.015-.407-1.666-.665.518-.182.9-.342,1.3-.453,2.125-.594,4.244-1.21,6.388-1.727a1.969,1.969,0,0,1,1.25.438c1.834,1.178,3.664,2.366,5.451,3.614a29.04,29.04,0,0,1,2.559,2.107c.969.858,1.936,1.724,2.842,2.646a46.094,46.094,0,0,1,5.468,6.671c.761,1.14,1.438,2.337,2.15,3.509a3.644,3.644,0,0,1,.159.332Z" transform="translate(-183.137 -78.905)" fill="#4bbbbe"/>
    <path id="Path_293" data-name="Path 293" d="M169.7,68.585c.819-.353,1.616-.776,2.461-1.046,1.778-.567,3.569-1.1,5.378-1.554a17.365,17.365,0,0,1,2.981-.418c1.941-.138,3.888-.287,5.831-.282a30.952,30.952,0,0,1,4.424.387c2.037.3,4.057.715,6.084,1.081l-.007.181c-.611.231-1.231.44-1.83.7-1.854.794-3.7,1.612-5.552,2.405a1.173,1.173,0,0,1-.62.073c-1.705-.285-3.4-.633-5.112-.873-1.433-.2-2.88-.339-4.325-.4-2.625-.111-5.254-.155-7.881-.2-.593-.011-1.188.081-1.783.125Z" transform="translate(-50.41 -53.461)" fill="#4bbbbe"/>
    <path id="Path_294" data-name="Path 294" d="M271.719,134.276c-.173-.724-.395-1.44-.511-2.173a24.71,24.71,0,0,1-.386-5.807c.155-1.969.419-3.935.739-5.885a37.713,37.713,0,0,1,2.1-6.928c.3-.809.966-1.048,1.611-1.336,1.576-.7,3.172-1.361,4.761-2.036.234-.1.469-.193.859-.354a57.372,57.372,0,0,0-5.929,11.782A66.372,66.372,0,0,0,271.719,134.276Z" transform="translate(-133.45 -89.997)" fill="#2095ac"/>
    <path id="Path_295" data-name="Path 295" d="M328.273,110.178c.894.357,1.648.63,2.378.956,1.388.619,2.766,1.261,4.138,1.914a.929.929,0,0,1,.392.429,29.517,29.517,0,0,1,2.007,6,35.244,35.244,0,0,1,.736,4.4,43.316,43.316,0,0,1,.2,5.107,20.586,20.586,0,0,1-.872,5.5,2.128,2.128,0,0,1-.142.274A59.052,59.052,0,0,0,328.273,110.178Z" transform="translate(-180.688 -90.342)" fill="#2095ac"/>
    <path id="Path_296" data-name="Path 296" d="M314.271,202.813v-13.13h4.623c.007.141.021.3.021.457,0,4.025-.007,8.05.011,12.075,0,.482-.139.619-.614.608C316.98,202.794,315.648,202.813,314.271,202.813Z" transform="translate(-169.184 -155.66)" fill="#2095ac"/>
    <path id="Path_297" data-name="Path 297" d="M318.941,283.53h-4.583V271.618a1.535,1.535,0,0,1,.265-.045c1.3,0,2.606,0,3.909-.006.293,0,.461.053.46.4q-.015,5.715-.012,11.431A.606.606,0,0,1,318.941,283.53Z" transform="translate(-169.256 -222.932)" fill="#2095ac"/>
    <path id="Path_298" data-name="Path 298" d="M329.646,13.012A40.987,40.987,0,0,1,347.782,1.718c-.6.524-1.188,1.057-1.794,1.571-.756.641-1.545,1.245-2.283,1.905-1.524,1.363-3.042,2.735-4.53,4.137-1.049.989-2.075,2.006-3.053,3.065a2.746,2.746,0,0,1-1.681.85c-1.174.2-2.332.5-3.5.728a.752.752,0,0,1-.569-.109A7.213,7.213,0,0,1,329.646,13.012Z" transform="translate(-181.816 -1.236)" fill="#2095ac"/>
    <path id="Path_299" data-name="Path 299" d="M316.559,113.8c.34.545.624.973.881,1.417.364.629.685,1.284,1.067,1.9a2.4,2.4,0,0,1,.329,1.341q-.02,3.463,0,6.926c0,.411-.119.543-.534.536-1.351-.023-2.7-.009-4.129-.009v-.539c0-2.226.011-4.453-.009-6.679a2.522,2.522,0,0,1,.324-1.351C315.16,116.209,315.823,115.066,316.559,113.8Z" transform="translate(-169.099 -93.321)" fill="#2095ac"/>
  </g>
</svg>
