<svg xmlns="http://www.w3.org/2000/svg" width="65.572" height="65.572" viewBox="0 0 65.572 65.572">
  <g id="Group_143" data-name="Group 143" transform="translate(-203.719)">
    <rect id="Rectangle_33" data-name="Rectangle 33" width="65.572" class="change_theme" height="65.572" rx="12" transform="translate(203.719)" fill="#fff"/>
    <path id="Vector" d="M0,9.087c.2-1,.367-2,.612-2.977A6.594,6.594,0,0,1,3.873,1.877,12.272,12.272,0,0,1,9.4.006c1.977-.064,2.507.383,2.895,2.339.489,2.446.938,4.891,1.447,7.337a1.887,1.887,0,0,1-.815,2.19A30.544,30.544,0,0,1,9.3,13.68c-.673.276-.938.659-.775,1.34A20.676,20.676,0,0,0,9.3,17.742a51.755,51.755,0,0,0,6.116,10.165c.367.51.632.383,1.06.043,1.08-.851,2.2-1.6,3.323-2.382.775-.553,1.407-.34,2.039.362,1.753,1.957,3.527,3.892,5.361,5.763a2.84,2.84,0,0,1,.652,3,5.072,5.072,0,0,1-3.058,3.318c-1.264.553-2.609.872-3.914,1.319H18.653a12.886,12.886,0,0,1-6.075-2.935c-5.2-4.636-9.3-10.1-11.151-17.12C.8,16.913.469,14.467,0,12.064Z" transform="translate(216.833 13.114)" fill="#ffbb54"/>
    <g id="Group_96" data-name="Group 96" transform="translate(237.234 27.686)">
      <circle id="Ellipse_10" data-name="Ellipse 10" cx="2.914" cy="2.914" r="2.914" fill="#ffbb54"/>
      <circle id="Ellipse_11" data-name="Ellipse 11" cx="2.914" cy="2.914" r="2.914" transform="translate(7.286)" fill="#ffbb54"/>
      <circle id="Ellipse_12" data-name="Ellipse 12" cx="2.914" cy="2.914" r="2.914" transform="translate(14.572)" fill="#ffbb54"/>
    </g>
  </g>
</svg>
